<svg width="316" height="68" viewBox="0 0 316 68" fill="none" xmlns="http://www.w3.org/2000/svg">
<path d="M7.2 52.4C4.2 51.6 1.8 50.5 0 49.3L2.1 44.6C2.9 42.7 5.1 41.8 7 42.7C7.9 43.1 8.9 43.4 9.9 43.8C12.3 44.5 14.7 44.9 17 44.9C21.7 44.9 24 43.7 24 41.2C24 40 23.4 39.2 22.1 38.7C20.8 38.2 18.9 37.8 16.2 37.4C13.1 36.9 10.5 36.3 8.5 35.7C6.5 35 4.7 33.9 3.2 32.2C1.7 30.5 1 28.5 1 25.4C1 22.8 1.7 20.5 3.1 18.6C4.5 16.6 6.5 15.1 9.2 14C11.9 12.9 15 12.3 18.6 12.3C21.3 12.3 24 12.6 26.6 13.2C29.3 13.8 31.5 14.7 33.2 15.8L31 20.5C30.2 22.4 28.1 23.2 26.3 22.5C23.8 21.5 21.3 21 18.5 21C16.1 21 14.4 21.4 13.2 22.1C12 22.8 11.4 23.7 11.4 24.8C11.4 26.1 12 26.9 13.3 27.4C14.6 27.9 16.6 28.4 19.4 28.8C22.5 29.4 25 29.7 27 30.3C29 30.9 30.7 32.1 32.2 33.7C33.7 35.4 34.4 37.7 34.4 40.7C34.4 43.2 33.7 45.5 32.3 47.4C30.9 49.4 28.8 50.9 26.1 52C23.4 53.1 20.2 53.6 16.5 53.6C13.3 53.7 10.2 53.3 7.2 52.4Z" fill="#012F51"/>
<path d="M81.4 16C83.6 15.1 86.2 14.6 89.1 14.6V22.2C89.1 23.6 88 24.6 86.6 24.6C83.4 24.6 81 25.5 79.2 27.2C77.4 29 76.5 31.6 76.5 35.1V53H65.5V15H76V20C77.3 18.3 79.1 16.9 81.4 16Z" fill="#012F51"/>
<path d="M99.1 51.2C95.9 49.5 93.4 47.2 91.7 44.2C90 41.2 89 37.9 89 34.1C89 30.3 89.9 27 91.7 24C93.5 21 96 18.7 99.1 17C102.3 15.3 105.9 14.5 109.9 14.5C113.9 14.5 117.5 15.3 120.6 17C123.8 18.7 126.2 21 128 24C129.8 27 130.7 30.3 130.7 34.1C130.7 37.9 129.8 41.2 128 44.2C126.2 47.2 123.7 49.5 120.6 51.2C117.4 52.9 113.9 53.7 109.9 53.7C105.9 53.7 102.3 52.8 99.1 51.2ZM116.9 41.8C118.7 39.9 119.6 37.3 119.6 34.1C119.6 30.9 118.7 28.3 116.9 26.4C115.1 24.5 112.8 23.5 109.9 23.5C107.1 23.5 104.7 24.5 102.9 26.4C101.1 28.3 100.1 30.9 100.1 34.1C100.1 37.3 101 39.9 102.9 41.8C104.7 43.7 107.1 44.7 109.9 44.7C112.7 44.6 115 43.7 116.9 41.8Z" fill="#012F51"/>
<path d="M168.3 18.8C171.2 21.6 172.6 25.8 172.6 31.4V49.4C172.6 51.5 170.9 53.1 168.9 53.1H161.6V33.1C161.6 30.1 160.9 27.8 159.6 26.4C158.3 24.9 156.4 24.2 153.9 24.2C151.1 24.2 148.9 25.1 147.3 26.8C145.7 28.5 144.8 31.1 144.8 34.5V53.3H133.8V15.3H144.3V19.7C145.8 18.1 147.6 16.9 149.7 16C151.8 15.1 154.2 14.7 156.8 14.7C161.6 14.6 165.4 16 168.3 18.8Z" fill="#012F51"/>
<path d="M218 15.1V46.7C218 53.7 216.2 58.8 212.6 62.2C209 65.6 203.7 67.3 196.7 67.3C193 67.3 189.5 66.9 186.3 66C183 65.1 180.3 63.8 178.1 62.1L180.6 57.6C181.6 55.8 183.8 55.2 185.6 56.1C186.5 56.6 187.5 57 188.6 57.3C191 58.1 193.5 58.5 195.9 58.5C199.7 58.5 202.5 57.6 204.3 55.9C206.1 54.2 207 51.6 207 48.1V46.5C204.1 49.7 200.1 51.2 195 51.2C191.5 51.2 188.3 50.4 185.4 48.9C182.5 47.4 180.2 45.2 178.5 42.4C176.8 39.6 176 36.4 176 32.8C176 29.2 176.8 26 178.5 23.2C180.2 20.4 182.5 18.3 185.4 16.7C188.3 15.2 191.5 14.4 195 14.4C200.5 14.4 204.7 16.2 207.6 19.8V14.9H218V15.1ZM204.3 39.7C206.2 38 207.1 35.7 207.1 33C207.1 30.2 206.2 28 204.3 26.3C202.4 24.6 200.1 23.7 197.1 23.7C194.2 23.7 191.8 24.6 189.9 26.3C188 28 187.1 30.3 187.1 33C187.1 35.8 188 38 189.9 39.7C191.8 41.4 194.2 42.3 197.1 42.3C200.1 42.2 202.5 41.4 204.3 39.7Z" fill="#012F51"/>
<path d="M57.6 44.9C56.1 44.9 54.9 44.5 54.1 43.6C53.3 42.7 52.9 41.5 52.9 39.9V23.9H58.6C60.7 23.9 62.3 22.2 62.3 20.2V15.5H52.9V6.7H41.9V15.4H36V23.9H41.9V40.1C41.9 44.6 43.1 48 45.6 50.3C48.1 52.6 51.6 53.8 56.1 53.8C57.8 53.8 59.5 53.6 61.1 53.2C61.5 53.1 62 53 62.4 52.8V43.7C61.1 44.4 59.1 44.9 57.6 44.9Z" fill="#012F51"/>
<path d="M311.8 18.9C309 16.1 305.2 14.7 300.4 14.7C297 14.7 294 15.4 291.4 16.8C289.2 18 287.5 19.5 286.1 21.5C284.9 19.5 283.4 17.9 281.4 16.8C279 15.4 276.2 14.7 273 14.7C269.9 14.7 267.1 15.3 264.6 16.6C263.1 17.4 261.7 18.4 260.6 19.7V3.3C260.6 1.5 259.1 0 257.3 0H254V20.2C252.7 18.7 251.1 17.5 249.4 16.6C246.9 15.3 244.1 14.7 241 14.7C237.5 14.7 234.2 15.5 231.3 17.1C228.4 18.7 226.1 21 224.5 24C222.9 26.9 222 30.3 222 34C222 37.7 222.8 41.1 224.5 44C226.1 46.9 228.4 49.3 231.3 50.9C234.2 52.5 237.5 53.4 241 53.4C244.2 53.4 247.1 52.7 249.6 51.4C251.3 50.5 252.8 49.3 254.1 47.8V52.2L254.2 53.1H260.7V33.1C260.7 29.2 261.7 26.2 263.8 24C265.8 21.8 268.5 20.8 272.1 20.8C275.2 20.8 277.6 21.7 279.3 23.5C281 25.3 281.8 28 281.8 31.6V53.1H288.4V33.1C288.4 29.2 289.4 26.2 291.4 24C293.4 21.8 296.1 20.8 299.7 20.8C302.8 20.8 305.1 21.7 306.8 23.5C308.5 25.3 309.3 28 309.3 31.6V53.1H312.2C314.2 53.1 315.9 51.4 315.9 49.4V31.1C316 25.8 314.6 21.7 311.8 18.9ZM241.5 47.4C239.1 47.4 236.9 46.8 235 45.7C233.1 44.6 231.6 43 230.5 41C229.4 39 228.8 36.6 228.8 34C228.8 31.4 229.4 29 230.5 27C231.6 25 233.1 23.4 235 22.3C236.9 21.2 239.1 20.6 241.5 20.6C243.9 20.6 246 21.2 248 22.3C249.9 23.4 251.4 25 252.5 27C253.6 29 254.2 31.4 254.2 34C254.2 36.6 253.6 39 252.5 41C251.4 43 249.9 44.6 248 45.7C246.1 46.8 243.9 47.4 241.5 47.4Z" fill="#00B7FF"/>
</svg>
